<svg width="48" height="69" viewBox="0 0 48 69" fill="none" xmlns="http://www.w3.org/2000/svg">
<path d="M36.87 17.93H36.86V27.93H36.87V35.85H11.01V10H32.75H46.63L36.63 0H1.00999V37.66L9.20999 45.85H46.87V17.93H36.87Z" fill="black"/>
<path d="M29.21 17.93H18.63V27.93H29.21V17.93Z" fill="black"/>
<path d="M3.96 68.28C3.15 68.28 2.45 67.99 1.87 67.41C1.29 66.83 1 66.14 1 65.32V56.85C1 56.04 1.29 55.34 1.87 54.76C2.45 54.18 3.14 53.89 3.96 53.89H12.41C13.22 53.89 13.92 54.18 14.51 54.76C15.1 55.34 15.39 56.03 15.39 56.85V58.21H12.25V57.67V57.01H11.59H4.75H4.1V57.67V64.5V65.16H4.75H11.58H12.24V64.5V63H9.13V59.88H15.38V65.31C15.38 66.12 15.09 66.82 14.5 67.4C13.91 67.98 13.21 68.27 12.4 68.27H3.96V68.28Z" fill="black" stroke="#020202" stroke-width="0.5" stroke-miterlimit="10"/>
<path d="M17.62 68.28V53.9H30.9V57.02H20.75V59.54H28.92V62.66H20.75V65.18H30.9V68.3H17.62V68.28Z" fill="black" stroke="#020202" stroke-width="0.5" stroke-miterlimit="10"/>
<path d="M35.45 68.28C34.64 68.28 33.94 67.99 33.36 67.41C32.78 66.83 32.49 66.14 32.49 65.32V56.85C32.49 56.04 32.78 55.34 33.36 54.76C33.94 54.18 34.63 53.89 35.45 53.89H43.92C44.72 53.89 45.41 54.18 46 54.76C46.59 55.34 46.88 56.03 46.88 56.85V65.32C46.88 66.13 46.59 66.83 46 67.41C45.41 67.99 44.72 68.28 43.92 68.28H35.45ZM36.25 65.16H43.08H43.74V64.5V57.67V57.01H43.08H36.25H35.59V57.67V64.5V65.16H36.25Z" fill="black" stroke="#020202" stroke-width="0.5" stroke-miterlimit="10"/>
</svg>
