<svg width="48" height="16" viewBox="0 0 48 16" fill="none" xmlns="http://www.w3.org/2000/svg">
<path d="M3.96 15.39C3.15 15.39 2.45 15.1 1.87 14.52C1.29 13.94 1 13.25 1 12.43V3.96C1 3.15 1.29 2.45 1.87 1.87C2.45 1.29 3.14 1 3.96 1H12.41C13.22 1 13.92 1.29 14.51 1.87C15.1 2.45 15.39 3.14 15.39 3.96V5.32H12.25V4.78V4.12H11.59H4.75H4.1V4.78V11.61V12.27H4.75H11.58H12.24V11.61V10.11H9.13V6.99H15.38V12.42C15.38 13.23 15.09 13.93 14.5 14.51C13.91 15.09 13.21 15.38 12.4 15.38H3.96V15.39Z" fill="black" stroke="#020202" stroke-width="0.5" stroke-miterlimit="10"/>
<path d="M17.62 15.39V1.01H30.9V4.13H20.75V6.65H28.92V9.77H20.75V12.29H30.9V15.41H17.62V15.39Z" fill="black" stroke="#020202" stroke-width="0.5" stroke-miterlimit="10"/>
<path d="M35.45 15.39C34.64 15.39 33.94 15.1 33.36 14.52C32.78 13.94 32.49 13.25 32.49 12.43V3.96C32.49 3.15 32.78 2.45 33.36 1.87C33.94 1.29 34.63 1 35.45 1H43.92C44.72 1 45.41 1.29 46 1.87C46.59 2.45 46.88 3.14 46.88 3.96V12.43C46.88 13.24 46.59 13.94 46 14.52C45.41 15.1 44.72 15.39 43.92 15.39H35.45ZM36.25 12.27H43.08H43.74V11.61V4.78V4.12H43.08H36.25H35.59V4.78V11.61V12.27H36.25Z" fill="black" stroke="#020202" stroke-width="0.5" stroke-miterlimit="10"/>
</svg>
